<?xml version="1.0" encoding="utf-8"?>
<!-- Generator: Adobe Illustrator 15.0.2, SVG Export Plug-In . SVG Version: 6.00 Build 0)  -->
<!DOCTYPE svg PUBLIC "-//W3C//DTD SVG 1.1//EN" "http://www.w3.org/Graphics/SVG/1.1/DTD/svg11.dtd">
<svg version="1.1" id="Шар_1" xmlns="http://www.w3.org/2000/svg" xmlns:xlink="http://www.w3.org/1999/xlink" x="0px" y="0px"
	 width="20px" height="20px" viewBox="0 0 20 20" enable-background="new 0 0 20 20" xml:space="preserve">
<path id="Фігура-26-копія" fill="#8BAED1" d="M18.422,9.016v2h-3.391c-0.057,0.688-0.176,1.354-0.314,2h2.908l-0.639,2
	h-2.803c-0.568,1.75-1.199,2.969-1.199,2.969h-2c0,0,0.623-1.219,1.19-2.969h-4.35c0.566,1.75,1.191,2.969,1.191,2.969h-2
	c0,0-0.631-1.219-1.2-2.969H2.987l-1.049-2h3.346c-0.139-0.646-0.257-1.313-0.314-2H1.703v-2h3.263c0.055-0.683,0.157-1.357,0.293-2
	H2.063l0.924-2h2.807c0.574-1.79,1.222-3.032,1.222-3.032h2c0,0-0.655,1.242-1.232,3.032h4.432c-0.577-1.79-1.231-3.032-1.231-3.032
	h2c0,0,0.647,1.242,1.222,3.032h2.78l0.764,2h-3.009c0.136,0.643,0.237,1.317,0.293,2H18.422z M12.708,13.016
	c0.14-0.646,0.259-1.313,0.317-2H6.974c0.059,0.688,0.179,1.354,0.318,2H12.708z M12.751,7.016H7.249
	c-0.136,0.643-0.236,1.317-0.288,2h6.078C12.986,8.333,12.887,7.659,12.751,7.016z"/>
<path id="Фігура-25" fill="#4D82B8" d="M9.984,18.969C5.022,18.969,1,14.945,1,9.984C1,5.022,5.022,1,9.984,1
	c4.961,0,8.985,4.022,8.985,8.984C18.969,14.945,14.945,18.969,9.984,18.969z M9.984,2.125c-4.34,0-7.859,3.519-7.859,7.859
	c0,4.34,3.519,7.86,7.859,7.86c4.341,0,7.86-3.52,7.86-7.86C17.844,5.644,14.325,2.125,9.984,2.125z"/>
<path id="Фігура-26" fill="#EAB0A0" d="M9,0h2v5H9V0z"/>
<path id="Фігура-26-копія-" fill="#EAB0A0" d="M20,9.031v2h-5v-2H20z"/>
<path id="Фігура-26-копія-_1_" fill="#EAB0A0" d="M16.279,2.332l1.414,1.414l-3.535,3.535l-1.414-1.414L16.279,2.332z"/>
</svg>
